<svg xmlns="http://www.w3.org/2000/svg" viewBox="0 0 840 252" width="840" height="252" role="img" aria-label="GitHub stats for Mnourkh01">
<defs>
  <linearGradient id="bezel" x1="0" y1="0" x2="1" y2="1">
    <stop offset="0" stop-color="#7F52FF"/><stop offset=".5" stop-color="#4b8f57"/><stop offset="1" stop-color="#6DB33F"/>
  </linearGradient>
  <linearGradient id="panel" x1="0" y1="0" x2="0" y2="1">
    <stop offset="0" stop-color="#101a12"/><stop offset="1" stop-color="#080d0a"/>
  </linearGradient>
  <linearGradient id="sheen" x1="0" y1="0" x2="1" y2="0">
    <stop offset="0" stop-color="#ffffff" stop-opacity="0"/><stop offset=".5" stop-color="#ffffff" stop-opacity=".14"/><stop offset="1" stop-color="#ffffff" stop-opacity="0"/>
  </linearGradient>
</defs>
<style>
  .lbl{font:700 11px 'Segoe UI',Verdana,sans-serif;letter-spacing:2px;fill:#6f8f76}
  .big{font:800 30px 'Segoe UI',Verdana,sans-serif;fill:#eaffe0}
  .cap{font:600 12px 'Segoe UI',Verdana,sans-serif;fill:#6f8f76}
  .foot{font:600 10px 'Segoe UI',Verdana,sans-serif;fill:#3f5a46}
  .title{font:800 15px 'Segoe UI',Verdana,sans-serif;fill:#eaffe0;letter-spacing:.5px}
  .accent{fill:#6DB33F}
  @keyframes rise{from{opacity:0;transform:translateY(8px)}to{opacity:1;transform:translateY(0)}}
  @keyframes grow{from{transform:scaleX(0)}to{transform:scaleX(1)}}
  @keyframes pop{from{opacity:0;transform:scale(.4)}to{opacity:1;transform:scale(1)}}
  @keyframes sweep{0%{opacity:0}20%{opacity:1}100%{opacity:0;transform:translateX(840px)}}
  .rise{opacity:0;animation:rise .6s ease-out forwards}
  .bar{transform-box:fill-box;transform-origin:left center;animation:grow 1.1s cubic-bezier(.2,.7,.2,1) forwards}
  .cell{transform-box:fill-box;transform-origin:center;opacity:0;animation:pop .5s ease-out forwards}
</style>
<rect x="1.5" y="1.5" width="837" height="249" rx="18" fill="url(#bezel)"/>
<rect x="4" y="4" width="832" height="244" rx="15" fill="url(#panel)"/>
<rect x="4" y="4" width="832" height="26" rx="15" fill="url(#sheen)" opacity=".5"/>
<text x="30" y="40" class="title">GitHub at a glance</text><circle cx="200" cy="35" r="4" class="accent"/><text x="212" y="40" class="cap">@Mnourkh01</text><text x="810" y="40" text-anchor="end" class="cap" style="fill:#ffd166">★ 2 stars · 4 followers</text><line x1="306" y1="64" x2="306" y2="216" stroke="#20342a" stroke-width="1"/><g class="rise" style="animation-delay:0.10s"><text x="34" y="92" class="big">165</text><text x="34" y="109" class="lbl">CONTRIBUTIONS · 1Y</text></g><g class="rise" style="animation-delay:0.18s"><text x="190" y="92" class="big">128</text><text x="190" y="109" class="lbl">COMMITS · 1Y</text></g><g class="rise" style="animation-delay:0.26s"><text x="34" y="168" class="big">28</text><text x="34" y="185" class="lbl">PULL REQUESTS · 1Y</text></g><g class="rise" style="animation-delay:0.34s"><text x="190" y="168" class="big">9</text><text x="190" y="185" class="lbl">PUBLIC REPOS</text></g><text x="330" y="84" class="lbl">MOST USED LANGUAGES</text><clipPath id="barclip"><rect x="330" y="96" width="476" height="16" rx="8"/></clipPath><g clip-path="url(#barclip)"><rect x="330" y="96" width="476" height="16" fill="#0e1a12"/><rect class="bar" x="330.00" y="96" width="321.46" height="16" fill="#3178c6" style="animation-delay:0.30s"/><rect class="bar" x="651.46" y="96" width="50.10" height="16" fill="#dea584" style="animation-delay:0.36s"/><rect class="bar" x="701.56" y="96" width="35.56" height="16" fill="#A97BFF" style="animation-delay:0.42s"/><rect class="bar" x="737.12" y="96" width="31.03" height="16" fill="#b07219" style="animation-delay:0.48s"/><rect class="bar" x="768.15" y="96" width="21.43" height="16" fill="#663399" style="animation-delay:0.54s"/><rect class="bar" x="789.58" y="96" width="14.88" height="16" fill="#f1e05a" style="animation-delay:0.60s"/><rect class="bar" x="804.46" y="96" width="1.08" height="16" fill="#012456" style="animation-delay:0.66s"/><rect class="bar" x="805.54" y="96" width="0.25" height="16" fill="#384d54" style="animation-delay:0.72s"/></g><g class="rise" style="animation-delay:0.50s"><circle cx="335" cy="136" r="5.5" fill="#3178c6"/><text x="348" y="140" class="cap" style="fill:#eaffe0">TypeScript</text><text x="544" y="140" text-anchor="end" class="cap">67.5%</text></g><g class="rise" style="animation-delay:0.55s"><circle cx="575" cy="136" r="5.5" fill="#dea584"/><text x="588" y="140" class="cap" style="fill:#eaffe0">Rust</text><text x="784" y="140" text-anchor="end" class="cap">10.5%</text></g><g class="rise" style="animation-delay:0.60s"><circle cx="335" cy="160" r="5.5" fill="#A97BFF"/><text x="348" y="164" class="cap" style="fill:#eaffe0">Kotlin</text><text x="544" y="164" text-anchor="end" class="cap">7.5%</text></g><g class="rise" style="animation-delay:0.65s"><circle cx="575" cy="160" r="5.5" fill="#b07219"/><text x="588" y="164" class="cap" style="fill:#eaffe0">Java</text><text x="784" y="164" text-anchor="end" class="cap">6.5%</text></g><g class="rise" style="animation-delay:0.70s"><circle cx="335" cy="184" r="5.5" fill="#663399"/><text x="348" y="188" class="cap" style="fill:#eaffe0">CSS</text><text x="544" y="188" text-anchor="end" class="cap">4.5%</text></g><g class="rise" style="animation-delay:0.75s"><circle cx="575" cy="184" r="5.5" fill="#f1e05a"/><text x="588" y="188" class="cap" style="fill:#eaffe0">JavaScript</text><text x="784" y="188" text-anchor="end" class="cap">3.1%</text></g><g class="rise" style="animation-delay:0.80s"><circle cx="335" cy="208" r="5.5" fill="#012456"/><text x="348" y="212" class="cap" style="fill:#eaffe0">PowerShell</text><text x="544" y="212" text-anchor="end" class="cap">0.2%</text></g><g class="rise" style="animation-delay:0.85s"><circle cx="575" cy="208" r="5.5" fill="#384d54"/><text x="588" y="212" class="cap" style="fill:#eaffe0">Dockerfile</text><text x="784" y="212" text-anchor="end" class="cap">0.1%</text></g><text x="30" y="234" class="foot">Static SVG · refreshed daily by GitHub Actions · no rate-limited third-party service</text>
</svg>